<svg width="23" height="23" viewBox="0 0 23 23" fill="none" xmlns="http://www.w3.org/2000/svg">
<path d="M6.90001 10.3474C6.90001 10.0424 7.02117 9.74986 7.23683 9.53419C7.4525 9.31853 7.74501 9.19737 8.05 9.19737H14.95C15.255 9.19737 15.5475 9.31853 15.7632 9.53419C15.9788 9.74986 16.1 10.0424 16.1 10.3474C16.1 10.6524 15.9788 10.9449 15.7632 11.1605C15.5475 11.3762 15.255 11.4974 14.95 11.4974H8.05C7.74501 11.4974 7.4525 11.3762 7.23683 11.1605C7.02117 10.9449 6.90001 10.6524 6.90001 10.3474ZM8.05 13.7974C7.74501 13.7974 7.4525 13.9185 7.23683 14.1342C7.02117 14.3499 6.90001 14.6424 6.90001 14.9474C6.90001 15.2524 7.02117 15.5449 7.23683 15.7605C7.4525 15.9762 7.74501 16.0974 8.05 16.0974H12.65C12.955 16.0974 13.2475 15.9762 13.4632 15.7605C13.6788 15.5449 13.8 15.2524 13.8 14.9474C13.8 14.6424 13.6788 14.3499 13.4632 14.1342C13.2475 13.9185 12.955 13.7974 12.65 13.7974H8.05ZM1.294e-05 11.4974C0.000589727 8.9761 0.829717 6.5249 2.35979 4.521C3.88987 2.5171 6.03609 1.07156 8.46815 0.406859C10.9002 -0.257845 13.4833 -0.104876 15.8199 0.842225C18.1565 1.78932 20.1171 3.47807 21.4 5.64855C22.6829 7.81903 23.2169 10.351 22.9199 12.8547C22.6229 15.3584 21.5114 17.6951 19.7563 19.5052C18.0012 21.3153 15.7 22.4985 13.2066 22.8726C10.7133 23.2468 8.16606 22.7912 5.95701 21.576L1.48581 22.9376C1.28638 22.9983 1.07419 23.0037 0.871926 22.9532C0.669666 22.9026 0.484949 22.7981 0.337532 22.6506C0.190115 22.5032 0.0855452 22.3185 0.0350067 22.1162C-0.0155318 21.914 -0.0101375 21.7018 0.0506128 21.5024L1.41221 17.0243C0.482908 15.3305 -0.00289067 13.4293 1.294e-05 11.4974ZM11.5 2.29737C9.86686 2.29723 8.26312 2.73183 6.8535 3.55652C5.44388 4.38121 4.27919 5.56627 3.47905 6.98997C2.67892 8.41368 2.27219 10.0247 2.30064 11.6576C2.32908 13.2905 2.79168 14.8864 3.64091 16.2814C3.72521 16.4199 3.77924 16.5748 3.79946 16.7357C3.81967 16.8966 3.80562 17.06 3.75821 17.2152L2.87731 20.1109L5.76841 19.23C5.92402 19.1826 6.08792 19.1687 6.24929 19.1893C6.41065 19.2099 6.56581 19.2645 6.70451 19.3496C7.91702 20.0898 9.28449 20.5393 10.6998 20.6626C12.115 20.786 13.5396 20.5799 14.8619 20.0605C16.1842 19.5412 17.3683 18.7226 18.3213 17.6691C19.2743 16.6155 19.9704 15.3556 20.355 13.988C20.7396 12.6204 20.8023 11.1824 20.5381 9.78651C20.2739 8.39065 19.69 7.07494 18.8323 5.9425C17.9745 4.81005 16.8661 3.89163 15.594 3.25922C14.3219 2.62681 12.9206 2.29759 11.5 2.29737Z" fill="black"/>
</svg>
