<svg width="18" height="24" viewBox="0 0 18 24" fill="none" xmlns="http://www.w3.org/2000/svg">
<path d="M7.61634 1.5899C7.14349 0.644807 6.15536 -0.119631 4.94172 0.0155553C3.85599 0.136192 2.24406 0.539932 1.14499 1.86391C0.0168231 3.22365 -0.403891 5.34419 0.462391 8.52137C1.38748 11.9107 2.76116 15.2522 4.46887 17.948C6.16385 20.6245 8.25166 22.7668 10.6468 23.5882C12.7649 24.3145 14.3847 24.0114 15.5663 23.2136C16.7059 22.4443 17.3316 21.2871 17.6553 20.4856C18.0178 19.5884 17.7789 18.6543 17.3061 17.9656L15.562 15.4292C15.1767 14.8687 14.622 14.4464 13.9792 14.2242C13.3364 14.002 12.6394 13.9915 11.9902 14.1943L9.57987 14.9479C9.50374 14.9739 9.42163 14.9771 9.34371 14.957C9.2658 14.9368 9.19552 14.8942 9.14158 14.8345C8.06858 13.5778 6.86645 11.8252 6.5397 10.0515C6.52936 10.0041 6.53646 9.95457 6.55971 9.91203C6.91434 9.31612 7.5242 8.64079 8.13163 8.04973C9.16037 7.04826 9.55017 5.45634 8.87121 4.09963L7.61634 1.5899Z" fill="black"/>
</svg>
