<svg width="40" height="40" viewBox="0 0 40 40" fill="none" xmlns="http://www.w3.org/2000/svg">
<path d="M28.4158 7.09898L32.9011 11.5821M31.3001 3.14953L19.1722 15.2774C18.5456 15.9032 18.1182 16.7005 17.944 17.5687L16.8237 23.1763L22.4313 22.054C23.2996 21.8803 24.0958 21.4547 24.7226 20.8278L36.8505 8.69994C37.215 8.33549 37.5041 7.90283 37.7013 7.42666C37.8985 6.95049 38 6.44014 38 5.92473C38 5.40933 37.8985 4.89897 37.7013 4.4228C37.5041 3.94663 37.215 3.51397 36.8505 3.14953C36.4861 2.78508 36.0534 2.49599 35.5772 2.29875C35.1011 2.10152 34.5907 2 34.0753 2C33.5599 2 33.0495 2.10152 32.5734 2.29875C32.0972 2.49599 31.6646 2.78508 31.3001 3.14953Z" stroke="black" stroke-width="3" stroke-linecap="round" stroke-linejoin="round"/>
<path d="M33.765 27.4117V33.7647C33.765 34.888 33.3188 35.9652 32.5245 36.7595C31.7302 37.5538 30.653 38 29.5297 38H6.23534C5.11206 38 4.03478 37.5538 3.2405 36.7595C2.44622 35.9652 2 34.888 2 33.7647V10.4703C2 9.34704 2.44622 8.26977 3.2405 7.47549C4.03478 6.68121 5.11206 6.23499 6.23534 6.23499H12.5883" stroke="black" stroke-width="3" stroke-linecap="round" stroke-linejoin="round"/>
</svg>
