<svg width="66" height="66" viewBox="0 0 66 66" fill="none" xmlns="http://www.w3.org/2000/svg">
<path d="M41.4159 20.099L45.9011 24.5821M44.3001 16.1495L32.1722 28.2774C31.5456 28.9032 31.1182 29.7005 30.944 30.5687L29.8237 36.1763L35.4313 35.054C36.2996 34.8803 37.0958 34.4547 37.7226 33.8278L49.8505 21.6999C50.215 21.3355 50.5041 20.9028 50.7013 20.4267C50.8985 19.9505 51 19.4401 51 18.9247C51 18.4093 50.8985 17.899 50.7013 17.4228C50.5041 16.9466 50.215 16.514 49.8505 16.1495C49.4861 15.7851 49.0534 15.496 48.5772 15.2988C48.1011 15.1015 47.5907 15 47.0753 15C46.5599 15 46.0496 15.1015 45.5734 15.2988C45.0972 15.496 44.6646 15.7851 44.3001 16.1495Z" stroke="black" stroke-width="3" stroke-linecap="round" stroke-linejoin="round"/>
<path d="M46.765 40.4117V46.7647C46.765 47.888 46.3188 48.9652 45.5245 49.7595C44.7302 50.5538 43.653 51 42.5297 51H19.2353C18.1121 51 17.0348 50.5538 16.2405 49.7595C15.4462 48.9652 15 47.888 15 46.7647V23.4703C15 22.347 15.4462 21.2698 16.2405 20.4755C17.0348 19.6812 18.1121 19.235 19.2353 19.235H25.5883" stroke="black" stroke-width="3" stroke-linecap="round" stroke-linejoin="round"/>
<rect x="0.5" y="0.5" width="65" height="65" rx="24.5" stroke="black"/>
</svg>
