<svg width="66" height="66" viewBox="0 0 66 66" fill="none" xmlns="http://www.w3.org/2000/svg">
<path fill-rule="evenodd" clip-rule="evenodd" d="M44.3148 11.875C45.2872 11.875 46.2198 12.2701 46.9075 12.9734L52.0929 18.2766C52.7805 18.9799 53.1668 19.9337 53.1668 20.9283V47.5C53.1668 50.6067 50.7045 53.125 47.6668 53.125H18.3335C15.2959 53.125 12.8335 50.6067 12.8335 47.5V17.5C12.8335 14.3934 15.2959 11.875 18.3335 11.875H44.3148ZM18.3335 15.625C17.321 15.625 16.5002 16.4645 16.5002 17.5V47.5C16.5002 48.5356 17.321 49.375 18.3335 49.375H20.1668V38.125C20.1668 35.0183 22.6293 32.5 25.6668 32.5H40.3335C43.3711 32.5 45.8335 35.0183 45.8335 38.125V49.375H47.6668C48.6794 49.375 49.5002 48.5356 49.5002 47.5V22.8033C49.5002 21.8087 49.1139 20.8549 48.4262 20.1516L45.0741 16.7234C44.3864 16.0201 43.4538 15.625 42.4814 15.625H42.1668V19.375C42.1668 22.4816 39.7045 25 36.6668 25H29.3335C26.2959 25 23.8335 22.4816 23.8335 19.375V15.625H18.3335ZM42.1668 49.375V38.125C42.1668 37.0894 41.346 36.25 40.3335 36.25H25.6668C24.6543 36.25 23.8335 37.0894 23.8335 38.125V49.375H42.1668ZM27.5002 15.625H38.5002V19.375C38.5002 20.4105 37.6794 21.25 36.6668 21.25H29.3335C28.321 21.25 27.5002 20.4105 27.5002 19.375V15.625Z" fill="black"/>
<rect x="0.5" y="0.5" width="65" height="65" rx="24.5" stroke="black"/>
</svg>
