<svg width="77" height="71" viewBox="0 0 77 71" fill="none" xmlns="http://www.w3.org/2000/svg">
<path d="M70.7155 24.5406H58.4241L40.9389 1.22703C40.6531 0.846051 40.2826 0.536828 39.8567 0.323853C39.4307 0.110878 38.961 0 38.4848 0C38.0086 0 37.5389 0.110878 37.1129 0.323853C36.687 0.536828 36.3165 0.846051 36.0307 1.22703L18.5455 24.5406H6.25414C4.60066 24.5381 3.01366 25.1914 1.84125 26.3574C0.668828 27.5233 0.00670613 29.1067 0.000108386 30.7602C-0.0034623 31.3447 0.0812109 31.9264 0.251267 32.4857L9.12232 63.7635C9.69917 65.802 10.926 67.5964 12.6162 68.8737C14.3064 70.1511 16.3675 70.8415 18.4861 70.84H58.4835C60.6023 70.8334 62.6621 70.1417 64.3553 68.8679C66.0485 67.5942 67.2843 65.807 67.878 63.7731L76.7605 32.4531C76.8015 32.3047 76.831 32.1535 76.8487 32.0006L76.9503 31.0554C76.9619 30.9568 76.9676 30.8575 76.9676 30.7582C76.9605 29.1054 76.2984 27.5229 75.1265 26.3574C73.9545 25.1919 72.3683 24.5386 70.7155 24.5406ZM38.4848 8.18085L50.7551 24.5406H26.2145L38.4848 8.18085ZM38.4848 55.1532C37.0567 55.1463 35.6627 54.7166 34.4786 53.9183C33.2945 53.1199 32.3735 51.9887 31.8317 50.6674C31.2899 49.3461 31.1517 47.8938 31.4345 46.494C31.7172 45.0942 32.4083 43.8095 33.4206 42.8021C34.4328 41.7947 35.7207 41.1098 37.1219 40.8337C38.523 40.5576 39.9745 40.7027 41.2933 41.2508C42.612 41.7988 43.7388 42.7253 44.5315 43.9131C45.3242 45.101 45.7473 46.4971 45.7473 47.9252C45.7367 49.8442 44.9668 51.6809 43.6059 53.0338C42.245 54.3868 40.4038 55.146 38.4848 55.1455V55.1532Z" fill="black"/>
</svg>
