<svg width="71" height="71" viewBox="0 0 71 71" fill="none" xmlns="http://www.w3.org/2000/svg">
<path d="M11.8066 41.3232H29.5166V47.2266H11.8066V41.3232ZM11.8066 53.1299H41.3233V59.0332H11.8066V53.1299Z" fill="black"/>
<path d="M64.9367 0H5.90333C4.33815 0.00156284 2.83752 0.624022 1.73077 1.73077C0.624022 2.83752 0.00156284 4.33815 0 5.90333V64.9367C0.00156284 66.5018 0.624022 68.0025 1.73077 69.1092C2.83752 70.216 4.33815 70.8384 5.90333 70.84H64.9367C66.5018 70.8384 68.0025 70.216 69.1092 69.1092C70.216 68.0025 70.8384 66.5018 70.84 64.9367V5.90333C70.8384 4.33815 70.216 2.83752 69.1092 1.73077C68.0025 0.624022 66.5018 0.00156284 64.9367 0ZM41.3233 5.90333V17.71H29.5167V5.90333H41.3233ZM5.90333 64.9367V5.90333H23.6133V23.6133H47.2267V5.90333H64.9367L64.9396 64.9367H5.90333Z" fill="black"/>
</svg>
