<svg width="77" height="77" viewBox="0 0 77 77" fill="none" xmlns="http://www.w3.org/2000/svg">
<path d="M50.3065 22.9776H50.3459M3.07983 15.1065C3.07983 11.9751 4.32375 8.97208 6.53793 6.7579C8.75211 4.54372 11.7552 3.2998 14.8865 3.2998H62.1132C65.2445 3.2998 68.2476 4.54372 70.4617 6.7579C72.6759 8.97208 73.9198 11.9751 73.9198 15.1065V62.3331C73.9198 65.4645 72.6759 68.4675 70.4617 70.6817C68.2476 72.8959 65.2445 74.1398 62.1132 74.1398H14.8865C11.7552 74.1398 8.75211 72.8959 6.53793 70.6817C4.32375 68.4675 3.07983 65.4645 3.07983 62.3331V15.1065Z" stroke="black" stroke-width="5" stroke-linecap="round" stroke-linejoin="round"/>
<path d="M3.07983 54.4625L22.7576 34.7848C26.4098 31.2703 30.9121 31.2703 34.5643 34.7848L54.2421 54.4625" stroke="black" stroke-width="5" stroke-linecap="round" stroke-linejoin="round"/>
<path d="M46.3711 46.5909L50.3066 42.6554C53.9588 39.1409 58.4611 39.1409 62.1133 42.6554L73.92 54.462" stroke="black" stroke-width="5" stroke-linecap="round" stroke-linejoin="round"/>
</svg>
