<svg width="40" height="36" viewBox="0 0 40 36" fill="none" xmlns="http://www.w3.org/2000/svg">
<path d="M35.9367 12.4712H29.6904L20.8046 0.623562C20.6594 0.429952 20.4711 0.272809 20.2547 0.164578C20.0382 0.0563466 19.7995 0 19.5575 0C19.3155 0 19.0768 0.0563466 18.8603 0.164578C18.6439 0.272809 18.4556 0.429952 18.3104 0.623562L9.42461 12.4712H3.17827C2.338 12.4699 1.53151 12.802 0.935698 13.3945C0.33989 13.987 0.00340797 14.7917 5.50805e-05 15.6319C-0.0017595 15.929 0.0412704 16.2246 0.127691 16.5088L4.63585 32.4038C4.929 33.4398 5.55245 34.3517 6.41139 35.0008C7.27033 35.6499 8.31777 36.0008 9.39441 36H29.7206C30.7973 35.9967 31.8441 35.6451 32.7046 34.9978C33.565 34.3505 34.193 33.4423 34.4947 32.4087L39.0087 16.4922C39.0296 16.4169 39.0446 16.34 39.0536 16.2623L39.1052 15.782C39.1111 15.7318 39.114 15.6814 39.114 15.631C39.1104 14.791 38.7739 13.9868 38.1783 13.3945C37.5828 12.8022 36.7767 12.4702 35.9367 12.4712ZM19.5575 4.15741L25.7931 12.4712H13.3219L19.5575 4.15741ZM19.5575 28.0282C18.8318 28.0247 18.1233 27.8063 17.5216 27.4006C16.9199 26.9949 16.4518 26.42 16.1765 25.7485C15.9011 25.077 15.8309 24.3391 15.9746 23.6277C16.1183 22.9163 16.4695 22.2635 16.9839 21.7515C17.4983 21.2396 18.1528 20.8915 18.8649 20.7512C19.5769 20.6108 20.3146 20.6846 20.9847 20.9631C21.6549 21.2416 22.2275 21.7124 22.6304 22.3161C23.0332 22.9198 23.2482 23.6292 23.2482 24.355C23.2428 25.3302 22.8515 26.2636 22.16 26.9511C21.4684 27.6387 20.5327 28.0245 19.5575 28.0243V28.0282Z" fill="black"/>
</svg>
