<svg width="45" height="40" viewBox="0 0 45 40" fill="none" xmlns="http://www.w3.org/2000/svg">
<path d="M4.00942 14.6074C3.47976 14.6069 2.97135 14.8157 2.59498 15.1884C2.21862 15.5611 2.0048 16.0674 2.00012 16.597C1.99797 16.7806 2.02456 16.9634 2.07892 17.1387L7.17111 35.0944C7.40713 35.9331 7.91152 36.6714 8.60707 37.1962C9.30261 37.7209 10.151 38.0033 11.0223 38H33.9519C34.8249 38.0008 35.6745 37.7178 36.3727 37.1937C37.0708 36.6697 37.5798 35.9329 37.8228 35.0944L42.915 17.1387L42.9741 16.597C42.9694 16.0674 42.7556 15.5611 42.3792 15.1884C42.0029 14.8157 41.4945 14.6069 40.9648 14.6074H4.00942ZM23.0505 30.3735C22.2318 30.3695 21.4327 30.123 20.754 29.6652C20.0753 29.2074 19.5475 28.5588 19.237 27.8013C18.9265 27.0438 18.8474 26.2113 19.0096 25.4089C19.1719 24.6064 19.5681 23.87 20.1485 23.2926C20.7288 22.7151 21.4671 22.3225 22.2704 22.1643C23.0736 22.0061 23.9057 22.0894 24.6616 22.4036C25.4176 22.7178 26.0635 23.2489 26.5179 23.9299C26.9724 24.6109 27.2149 25.4112 27.2149 26.2298C27.2097 27.3308 26.7686 28.3849 25.9882 29.1614C25.2077 29.938 24.1515 30.3738 23.0505 30.3735Z" stroke="black" stroke-width="3" stroke-linejoin="round"/>
<path d="M13.0312 14.6074L22.4868 2L31.9423 14.6074" stroke="black" stroke-width="3" stroke-linejoin="round"/>
</svg>
